<svg xmlns="http://www.w3.org/2000/svg" version="1.1" xmlns:xlink="http://www.w3.org/1999/xlink" xmlns:svgjs="http://svgjs.dev/svgjs" width="1000" height="750" viewBox="0 0 1000 750"><rect width="1000" height="750" fill="#8d021f"></rect><g transform="matrix(0.834,0,0,0.834,82.49454545454546,107.16566301351662)"><svg viewBox="0 0 396 252" data-background-color="#8d021f" preserveAspectRatio="xMidYMid meet" height="636" width="1000" xmlns="http://www.w3.org/2000/svg" xmlns:xlink="http://www.w3.org/1999/xlink"><g id="tight-bounds" transform="matrix(1,0,0,1,0.2400000000000091,1.2458503397165543)"><svg viewBox="0 0 395.52 247.2" height="247.2" width="395.52"><g><svg></svg></g><g><svg viewBox="0 0 395.52 247.2" height="247.2" width="395.52"><mask id="21e3566b-7def-4b6d-b4d5-acee47552167"><rect width="640" height="400" fill="white"></rect><g transform="matrix(1,0,0,1,65.76669767441862,37.08)"><svg viewBox="0 0 263.98660465116274 173.04" height="173.04" width="263.98660465116274"><g><svg viewBox="0 0 263.98660465116274 173.04" height="173.04" width="263.98660465116274"><g><svg viewBox="0 0 263.98660465116274 173.04" height="173.04" width="263.98660465116274"><g><svg viewBox="0 0 263.98660465116274 173.04" height="173.04" width="263.98660465116274"><g id="SvgjsG1248"><svg viewBox="0 0 263.98660465116274 173.04" height="173.04" width="263.98660465116274" id="SvgjsSvg1247"><g><svg viewBox="0 0 263.98660465116274 173.04" height="173.04" width="263.98660465116274"><g transform="matrix(1,0,0,1,0,0)"><svg width="263.98660465116274" viewBox="-3.65 -39.25 66.6 44" height="173.04" data-palette-color="#f7e1e1"><path d="M11.75-35.25Q14.75-35.25 17.05-34.2 19.35-33.15 21.3-31.05L21.3-31.05 18.35-27.65Q16.8-29.05 15.33-29.75 13.85-30.45 12.2-30.45L12.2-30.45Q10.3-30.45 9.2-29.28 8.1-28.1 8.1-26.2L8.1-26.2Q8.1-24.3 9.25-23.1 10.4-21.9 13.75-20.6L13.75-20.6Q18.05-18.85 20.08-16.5 22.1-14.15 22.1-9.85L22.1-9.85Q22.1-6.9 20.75-4.48 19.4-2.05 16.88-0.65 14.35 0.75 11 0.75L11 0.75Q7.55 0.75 5-0.48 2.45-1.7 0.35-3.95L0.35-3.95 3.55-7.45Q5.35-5.85 7-5 8.65-4.15 10.6-4.15L10.6-4.15Q12.9-4.15 14.18-5.58 15.45-7 15.45-9.45L15.45-9.45Q15.45-11.6 14.33-12.98 13.2-14.35 10.15-15.5L10.15-15.5Q5.55-17.35 3.53-19.75 1.5-22.15 1.5-25.75L1.5-25.75Q1.5-28.5 2.83-30.65 4.15-32.8 6.5-34.02 8.85-35.25 11.75-35.25L11.75-35.25ZM28.6-7.05Q30.3-7.05 31.35-5.9 32.4-4.75 32.4-3.15L32.4-3.15Q32.4-1.55 31.35-0.4 30.3 0.75 28.6 0.75L28.6 0.75Q26.95 0.75 25.87-0.4 24.8-1.55 24.8-3.15L24.8-3.15Q24.8-4.75 25.87-5.9 26.95-7.05 28.6-7.05L28.6-7.05ZM58.95 0L52.5 0 50.8-8.1 41.9-8.1 40.25 0 33.9 0 42.6-34.55 50.3-34.55 58.95 0ZM46.35-29.7L42.9-12.9 49.85-12.9 46.35-29.7Z" opacity="1" transform="matrix(1,0,0,1,0,0)" fill="black" class="wordmark-text-0" id="SvgjsPath1246" stroke-width="7" stroke="black" stroke-linejoin="round"></path></svg></g></svg></g></svg></g></svg></g></svg></g></svg></g></svg></g></mask><g transform="matrix(1,0,0,1,65.76669767441862,37.08)"><svg viewBox="0 0 263.98660465116274 173.04" height="173.04" width="263.98660465116274"><g><svg viewBox="0 0 263.98660465116274 173.04" height="173.04" width="263.98660465116274"><g><svg viewBox="0 0 263.98660465116274 173.04" height="173.04" width="263.98660465116274"><g><svg viewBox="0 0 263.98660465116274 173.04" height="173.04" width="263.98660465116274"><g id="textblocktransform"><svg viewBox="0 0 263.98660465116274 173.04" height="173.04" width="263.98660465116274" id="textblock"><g><svg viewBox="0 0 263.98660465116274 173.04" height="173.04" width="263.98660465116274"><g transform="matrix(1,0,0,1,0,0)"><svg width="263.98660465116274" viewBox="-3.65 -39.25 66.6 44" height="173.04" data-palette-color="#f7e1e1"><path d="M11.75-35.25Q14.75-35.25 17.05-34.2 19.35-33.15 21.3-31.05L21.3-31.05 18.35-27.65Q16.8-29.05 15.33-29.75 13.85-30.45 12.2-30.45L12.2-30.45Q10.3-30.45 9.2-29.28 8.1-28.1 8.1-26.2L8.1-26.2Q8.1-24.3 9.25-23.1 10.4-21.9 13.75-20.6L13.75-20.6Q18.05-18.85 20.08-16.5 22.1-14.15 22.1-9.85L22.1-9.85Q22.1-6.9 20.75-4.48 19.4-2.05 16.88-0.65 14.35 0.75 11 0.75L11 0.75Q7.55 0.75 5-0.48 2.45-1.7 0.35-3.95L0.35-3.95 3.55-7.45Q5.35-5.85 7-5 8.65-4.15 10.6-4.15L10.6-4.15Q12.9-4.15 14.18-5.58 15.45-7 15.45-9.45L15.45-9.45Q15.45-11.6 14.33-12.98 13.2-14.35 10.15-15.5L10.15-15.5Q5.55-17.35 3.53-19.75 1.5-22.15 1.5-25.75L1.5-25.75Q1.5-28.5 2.83-30.65 4.15-32.8 6.5-34.02 8.85-35.25 11.75-35.25L11.75-35.25ZM28.6-7.05Q30.3-7.05 31.35-5.9 32.4-4.75 32.4-3.15L32.4-3.15Q32.4-1.55 31.35-0.4 30.3 0.75 28.6 0.75L28.6 0.75Q26.95 0.75 25.87-0.4 24.8-1.55 24.8-3.15L24.8-3.15Q24.8-4.75 25.87-5.9 26.95-7.05 28.6-7.05L28.6-7.05ZM58.95 0L52.5 0 50.8-8.1 41.9-8.1 40.25 0 33.9 0 42.6-34.55 50.3-34.55 58.95 0ZM46.35-29.7L42.9-12.9 49.85-12.9 46.35-29.7Z" opacity="1" transform="matrix(1,0,0,1,0,0)" fill="#f7e1e1" class="wordmark-text-0" data-fill-palette-color="primary" id="text-0"></path></svg></g></svg></g></svg></g></svg></g></svg></g></svg></g></svg></g><g mask="url(#21e3566b-7def-4b6d-b4d5-acee47552167)"><g transform="matrix(5.572727272727272, 0, 0, 5.572727272727272, 30.578181818181832, 1)"><svg xmlns="http://www.w3.org/2000/svg" viewBox="2 10 60 44" x="0" y="0" height="44" width="60" class="icon-none" data-fill-palette-color="accent" id="none"><g fill="#ed1703" data-fill-palette-color="accent"><path d="M61 48H60V12a2 2 0 0 0-2-2H6a2 2 0 0 0-2 2V48H3a1 1 0 0 0-1 1v1a4 4 0 0 0 4 4H58a4 4 0 0 0 4-4V49A1 1 0 0 0 61 48ZM6 12H58V48H6ZM58 52H6a2 2 0 0 1-2-2H60A2 2 0 0 1 58 52Z" fill="#ed1703" data-fill-palette-color="accent"></path><path d="M55 14H9a1 1 0 0 0-1 1V45a1 1 0 0 0 1 1H55a1 1 0 0 0 1-1V15A1 1 0 0 0 55 14ZM54 44H10V16H54Z" fill="#ed1703" data-fill-palette-color="accent"></path><path d="M19 36h3v5a1 1 0 0 0 1 1h4a1 1 0 0 0 1-1V36h8v5a1 1 0 0 0 1 1h4a1 1 0 0 0 1-1V36h3a1 1 0 0 0 1-1V19a1 1 0 0 0-1-1H19a1 1 0 0 0-1 1V35A1 1 0 0 0 19 36Zm7 4H24V36h2Zm14 0H38V36h2ZM20 20H44V34H20Z" fill="#ed1703" data-fill-palette-color="accent"></path><path d="M23 24H33a1 1 0 0 0 0-2H23a1 1 0 0 0 0 2Z" fill="#ed1703" data-fill-palette-color="accent"></path><path d="M37 24h4a1 1 0 0 0 0-2H37a1 1 0 0 0 0 2Z" fill="#ed1703" data-fill-palette-color="accent"></path><path d="M23 28h4a1 1 0 0 0 0-2H23a1 1 0 0 0 0 2Z" fill="#ed1703" data-fill-palette-color="accent"></path><path d="M30 27a1 1 0 0 0 1 1h4a1 1 0 0 0 0-2H31A1 1 0 0 0 30 27Z" fill="#ed1703" data-fill-palette-color="accent"></path><path d="M41 26H39a1 1 0 0 0 0 2h2a1 1 0 0 0 0-2Z" fill="#ed1703" data-fill-palette-color="accent"></path><path d="M29 32a1 1 0 0 0 0-2H23a1 1 0 0 0 0 2Z" fill="#ed1703" data-fill-palette-color="accent"></path><path d="M41 30H33a1 1 0 0 0 0 2h8a1 1 0 0 0 0-2Z" fill="#ed1703" data-fill-palette-color="accent"></path></g></svg></g></g></svg></g><defs></defs></svg><rect width="395.52" height="247.2" fill="none" stroke="none" visibility="hidden"></rect></g></svg></g></svg>